<?xml version="1.0" encoding="UTF-8"?>
<svg xmlns="http://www.w3.org/2000/svg" width="252.631" height="37.689" viewBox="0 0 252.631 37.689">
  <path id="Path_5120" data-name="Path 5120" d="M268.166,155.153h.538v-2.379h2.777v2.379h.538v-5.064h-.538v2.227H268.7v-2.227h-.538Zm-3.211-2.9v-1.7h.624a1.88,1.88,0,0,1,.978.149.855.855,0,0,1,.428.7.823.823,0,0,1-.437.708,2.236,2.236,0,0,1-1.014.149Zm0,2.438v-1.98h.565a3.526,3.526,0,0,1,1.079.1.923.923,0,0,1,.669.91.941.941,0,0,1-.523.815,2.541,2.541,0,0,1-1.13.152Zm-.538.461h1.264a2.718,2.718,0,0,0,1.472-.277,1.358,1.358,0,0,0,.66-1.157,1.32,1.32,0,0,0-.886-1.276,1.184,1.184,0,0,0,.6-1.011,1.31,1.31,0,0,0-.633-1.091,2.258,2.258,0,0,0-1.219-.253h-1.255Zm-6.253,0h.538v-4.5l2.016,4.5h.458l2.016-4.5v4.5h.535v-5.064H262.9l-1.951,4.309-1.96-4.309h-.827Zm-4.074-2.337v.461h2.994a2.351,2.351,0,0,1-4.526-.672,2.112,2.112,0,0,1,.74-1.543,2.431,2.431,0,0,1,1.594-.568,2.283,2.283,0,0,1,1.9.946h.607a2.359,2.359,0,0,0-.934-1,3,3,0,0,0-1.576-.434,2.953,2.953,0,0,0-2.046.776,2.561,2.561,0,0,0-.827,1.814,2.877,2.877,0,0,0,5.709.22Zm-18.222-8.87c-2.084-.393-3.247-1.326-3.541-2.456a3.825,3.825,0,0,1,1.237-3.467c.788-.752,1.439-.937,2.527-.039,1.659,1.912,4.841,3.265,3.9,4.6-.806,1.154-2.786,1.359-4.127,1.359m9.025-11.838c.172-.562.345-.1.387.048a21.775,21.775,0,0,1-.006,8.323,1.2,1.2,0,0,0,.41,1.109l2.858,2.608c.517.47,1.323,1.157,1.424.392h.274l-.021,6.236h-.294a10.556,10.556,0,0,0-1.5-1.493l-4.9-4.668a4.461,4.461,0,0,1-.369.39c-1.54,1.255-2.2,2.129-4.338,2.679a8.921,8.921,0,0,1-8.635-2.438,6.412,6.412,0,0,1,.354-9.634c2.263-2.1,1.225-1.781.042-3.66a5.974,5.974,0,0,1-.9-3.705,6.474,6.474,0,0,1,6.67-6,6.572,6.572,0,0,1,6.289,6.066,6.718,6.718,0,0,1-3.541,6.229c-.3.187-.042.452.2.785a17.694,17.694,0,0,0,3.039,2.825c1.169,0,2.073-4.529,2.557-6.093m-8.721-5.87a2.56,2.56,0,1,1-2.56,2.56,2.56,2.56,0,0,1,2.56-2.56M64.411,146.967v-.274a3.519,3.519,0,0,0,1.63-3.027L65.99,126.8a3.529,3.529,0,0,0-1.629-3.027v-.294h9.521c2.756,0,10.889-.006,10.847,7.618a7.389,7.389,0,0,1-6.253,6.931c-.562.1-.428.327-.226.586l5.141,6.533a6.82,6.82,0,0,0,1.493,1.5v.3l-4.457.021a.933.933,0,0,1-.954-.485L71.7,136.295c-.458-.6.036-.8.431-.8h3.408c2.813,0,5.739-2.194,5.7-4.609-.056-3.482-3.634-4.023-6.265-4.026l-4.99-.006-.074,17.017a3.435,3.435,0,0,0,1.63,2.8v.294Zm21.029,0v-.274a3.525,3.525,0,0,0,1.63-3.027L87.019,126.8a3.529,3.529,0,0,0-1.63-3.027v-.294H98.8v4h-.226c-.464-.595-.758-.8-1.927-.8l-5.635.012-.03,6.913,5.932.039a1.6,1.6,0,0,0,1.641-.8H98.8v4.767h-.226c-.464-.6-.568-.8-1.734-.8l-5.873.024-.03,6.949H96.65c1.169,0,1.463-.214,1.927-.809H98.8v4Zm26.485-20.122a8.354,8.354,0,0,0-8.353,8.353v.193a8.351,8.351,0,0,0,8.353,8.35c2.037,0,5.022-.85,5.819-1.876h.226v5.15h-.244c-.461-.6-1.418-.134-2.313.11a13.136,13.136,0,0,1-3.488.517,12.253,12.253,0,0,1-12.254-12.251V135.2a12.253,12.253,0,0,1,12.254-12.251,13.136,13.136,0,0,1,3.488.517c.9.247,1.853.708,2.313.11h.244v5.15h-.226c-.8-1.026-3.7-1.879-5.819-1.879m6.976,20.122v-.274a3.525,3.525,0,0,0,1.629-3.027V126.779a3.521,3.521,0,0,0-1.629-3.027v-.277h7.131v.3a3.419,3.419,0,0,0-1.629,2.8v7.761c0,.149.128.1.208,0l7.22-9.155c.434-.55,1.157-1.323.393-1.424v-.277l5.947.024v.294a7.639,7.639,0,0,0-1.49,1.5l-8.014,9.61a.579.579,0,0,0,.012.827l7.85,9.417a7.613,7.613,0,0,0,1.49,1.5v.3l-5.947.021v-.274c.764-.1.039-.874-.393-1.424l-7.015-8.9c-.107-.137-.262-.137-.262.045v7.455a3.428,3.428,0,0,0,1.629,2.8v.294Zm20.205,0v-.274a3.523,3.523,0,0,0,1.626-3.027l-.048-16.863a3.525,3.525,0,0,0-1.632-3.027v-.294h13.414v4h-.226c-.461-.595-.758-.8-1.924-.8l-5.638.012-.03,6.913,5.932.039a1.594,1.594,0,0,0,1.641-.8h.244v4.767h-.226c-.461-.6-.565-.8-1.734-.8l-5.87.024-.033,6.949h5.712c1.166,0,1.463-.214,1.924-.809h.226v4Zm36.441-6.563,10.535-13.913a1.744,1.744,0,0,0-.378-2.739v-.277h6.708l-10.479,14.7h0l-4.056,5.659c-1.115,1.552-1.992,2.29-1.1,2.849v.294l-7.157-.009v-.274a3.525,3.525,0,0,0,1.629-3.027V131.284c0-.363-.223-.416-.422-.14l-9.1,12.688c-.99,1.383-2.087,2.29-1.2,2.849v.294L154,146.967v-.012l-.6.012v-.274a3.519,3.519,0,0,0,1.629-3.027V126.779a3.515,3.515,0,0,0-1.629-3.027v-.277h7.133v.3a3.429,3.429,0,0,0-1.632,2.8v13.94c0,.351.169.324.393.033l10.636-14.053a1.744,1.744,0,0,0-.375-2.739v-.277h7.193v.3a3.419,3.419,0,0,0-1.63,2.8v13.77c0,.294.25.3.425.062m9.176,6.563v-.274a3.521,3.521,0,0,0,1.632-3.027l-.033-10.134,3.973-5.561-.024,5.632,5.929.039a1.592,1.592,0,0,0,1.641-.8h.244v4.767h-.226c-.461-.6-.565-.8-1.731-.8l-5.873.024-.033,6.949h5.712c1.169,0,1.463-.214,1.924-.809h.226v4Zm8.781-23.485h4.582v4h-.226c-.461-.595-.755-.8-1.924-.8l-4.725.012Zm26.616,16.066c.068-.312.164-.52-.3-.52l-8.026-.012c-1.169,0-1.463.205-1.927.8h-.226v-4.573h15.32c.333,0,.574,0,.577.47.006,1.725-2.1,11.9-12.572,11.906-7.568,0-13.651-5.462-13.651-12.227V135.2c0-6.765,6.084-12.251,13.589-12.251a15.915,15.915,0,0,1,3.871.517c.99.247,2.052,1.219,2.563.624h.271v5.147h-.253a8.069,8.069,0,0,0-2.765-1.713,9.4,9.4,0,0,0-3.687-.678c-5.114,0-9.741,3.741-9.741,8.353v.193c0,4.612,4.627,8.35,9.741,8.35,3.179,0,6.741-1.954,7.217-4.193m42.459-15.929a9.294,9.294,0,1,1-9.292,9.3,9.3,9.3,0,0,1,9.292-9.3m0,3.967a5.327,5.327,0,1,1-5.326,5.329,5.329,5.329,0,0,1,5.326-5.329M60.409,143.137a1.915,1.915,0,1,1-1.915,1.915,1.914,1.914,0,0,1,1.915-1.915M36.3,146.967v-.274a3.4,3.4,0,0,0,.526-.41,37.21,37.21,0,0,1-8.968.681H19.451v-.372a4.4,4.4,0,0,0,2.04-3.785l-.065-21.091a4.412,4.412,0,0,0-2.037-3.788v-.369H27.8c4.621,0,12.067-.39,17.208,5.587.1.11.187.22.277.336h.491c2.756,0,10.886-.006,10.844,7.618a7.383,7.383,0,0,1-6.253,6.931c-.559.1-.425.327-.223.586l5.138,6.533a6.885,6.885,0,0,0,1.493,1.5v.3l-4.454.021a.938.938,0,0,1-.957-.485l-7.77-10.187c-.455-.6.036-.8.431-.8h3.408c2.816,0,5.412-2.168,5.29-4.133-.128-2.034-.663-3.643-2.849-4.312a14.091,14.091,0,0,0-2.9-.5,17.06,17.06,0,0,1,1.041,5.709,16.057,16.057,0,0,1-.143,2.293l-5.123.033A10.494,10.494,0,0,0,43,132.26a9.927,9.927,0,0,0-1.13-4.689l-.039,9.456a9.952,9.952,0,0,0,.446-.954l3.423,4.481a10.045,10.045,0,0,1-.63.824,14.891,14.891,0,0,1-3.25,2.828,3.487,3.487,0,0,0,1.612,2.468v.294Zm1.621-5.911L37.878,126.8a3.523,3.523,0,0,0-1.629-3.027v-.294h1.7a15.923,15.923,0,0,0-11.525-1.737v21.032a15.945,15.945,0,0,0,11.5-1.722m224.433-18.582a10.321,10.321,0,0,0-10.321,10.321v.238a10.32,10.32,0,0,0,10.321,10.318c2.516,0,6.209-1.371,7.193-2.64h.28v6.684h-.3c-.571-.734-1.754-.164-2.858.14a16.251,16.251,0,0,1-4.312.639,15.144,15.144,0,0,1-15.141-15.141v-.238a15.14,15.14,0,0,1,15.141-15.141,16.251,16.251,0,0,1,4.312.639c1.1.3,2.287.874,2.858.137h.3v6.685h-.28c-.984-1.267-4.576-2.64-7.193-2.64" transform="translate(-19.389 -117.553)" fill="#d9000d" fill-rule="evenodd"></path>
</svg>
