<?xml version="1.0" encoding="UTF-8"?>
<svg id="Layer_2" data-name="Layer 2" xmlns="http://www.w3.org/2000/svg" xmlns:xlink="http://www.w3.org/1999/xlink" viewBox="0 0 110 29.75">
  <defs>
    <style>
      .cls-1 {
        fill: url(#linear-gradient);
        stroke-width: 0px;
      }
    </style>
    <linearGradient id="linear-gradient" x1="0" y1="14.88" x2="110" y2="14.88" gradientUnits="userSpaceOnUse">
      <stop offset=".02" stop-color="#c28a2c"/>
      <stop offset=".25" stop-color="#f8e554"/>
      <stop offset=".35" stop-color="#f7e456"/>
      <stop offset=".42" stop-color="#f6e360"/>
      <stop offset=".48" stop-color="#f4e270"/>
      <stop offset=".54" stop-color="#f2e084"/>
      <stop offset=".54" stop-color="#f1de7f"/>
      <stop offset=".58" stop-color="#ecd260"/>
      <stop offset=".62" stop-color="#e8c947"/>
      <stop offset=".66" stop-color="#e6c335"/>
      <stop offset=".71" stop-color="#e4bf2b"/>
      <stop offset=".76" stop-color="#e4be28"/>
      <stop offset="1" stop-color="#c28a2c"/>
    </linearGradient>
  </defs>
  <g id="Layer_1-2" data-name="Layer 1">
    <path class="cls-1" d="M92.6,19.01c-.98,0-1.83-.2-2.55-.61s-1.27-.98-1.65-1.74c-.39-.75-.58-1.64-.58-2.68v-3.69c0-1.04.19-1.93.58-2.68.39-.75.94-1.33,1.65-1.74s1.57-.61,2.55-.61c.81,0,1.55.17,2.2.52.65.35,1.2.85,1.63,1.49.44.65.73,1.42.89,2.31h-2.28c-.11-.44-.29-.83-.53-1.14-.24-.32-.53-.56-.86-.74-.33-.17-.69-.26-1.07-.26-.77,0-1.38.25-1.83.76-.45.51-.67,1.2-.67,2.08v3.69c0,.88.22,1.57.67,2.07.45.51,1.06.76,1.83.76.57,0,1.09-.19,1.54-.56.45-.37.76-.9.92-1.58h2.28c-.17.9-.47,1.67-.9,2.31-.44.64-.98,1.14-1.63,1.49s-1.38.52-2.2.52ZM101.1,5.41v10.64c0,.23.06.41.18.54.12.13.28.19.5.19h.66v2.12h-1.2c-.74,0-1.32-.22-1.73-.67s-.62-1.07-.62-1.88V5.41h2.21ZM89.57,24.48c-.31,0-.57-.07-.8-.2-.23-.14-.41-.33-.53-.57s-.19-.53-.19-.86v-1.21c0-.33.06-.62.19-.86.13-.25.31-.44.53-.57.23-.14.5-.2.8-.2.25,0,.49.05.7.16s.39.26.53.46c.14.2.24.42.29.69h-.63c-.04-.14-.1-.26-.19-.37-.09-.11-.19-.19-.32-.25s-.25-.09-.37-.09c-.27,0-.49.1-.65.29-.16.19-.25.44-.25.75v1.21c0,.31.08.56.25.75.16.19.38.28.65.28.19,0,.37-.06.54-.18.17-.12.28-.29.34-.52h.63c-.05.26-.15.49-.29.69-.14.2-.32.35-.53.46s-.44.16-.69.16ZM92.51,20.04v3.58c0,.07.02.13.05.17.03.04.08.06.14.06h.29v.59h-.36c-.23,0-.41-.07-.54-.22-.13-.14-.19-.35-.19-.61v-3.58h.62ZM93.69,20.66v-.62h.62v.62h-.62ZM93.69,24.43v-3.14h.62v3.14h-.62ZM95.24,24.43v-3.14h.62v3.14h-.62ZM97.14,24.43v-1.9c0-.22-.06-.39-.17-.51-.11-.12-.28-.18-.49-.18s-.36.05-.47.16-.16.26-.16.45l-.06-.6c.1-.19.22-.34.38-.44s.33-.15.52-.15c.34,0,.6.11.79.33s.28.54.28.94v1.9h-.62ZM98.7,20.66v-.62h.62v.62h-.62ZM98.7,24.43v-3.14h.62v3.14h-.62ZM101.51,24.48c-.43,0-.77-.12-1-.36s-.36-.57-.36-1.01v-.52c0-.43.12-.76.36-1s.57-.35,1-.35c.25,0,.47.04.66.13.2.09.35.21.47.37l-.44.4c-.09-.1-.19-.18-.31-.23-.12-.05-.24-.08-.37-.08-.24,0-.42.07-.55.2-.13.13-.2.32-.2.56v.52c0,.25.07.44.2.57.13.14.32.2.55.2.13,0,.26-.03.37-.09.12-.06.22-.14.31-.25l.44.43c-.12.16-.27.28-.47.36s-.42.13-.66.13ZM105.11,27.91c-.18,0-.34-.03-.47-.1s-.24-.16-.31-.28-.11-.27-.11-.43v-.05c0-.15.04-.28.11-.41s.17-.23.29-.29c-.1-.06-.19-.14-.25-.25s-.09-.22-.09-.34v-.07c0-.23.08-.42.23-.56s.35-.21.6-.21.45.07.6.21.23.33.23.56v.07c0,.12-.03.23-.1.34s-.15.19-.25.24c.12.07.22.16.3.29s.11.27.11.41v.05c0,.16-.04.31-.11.43s-.18.22-.31.28-.29.1-.47.1ZM105.11,27.51c.14,0,.26-.04.35-.12s.13-.19.13-.33v-.03c0-.14-.04-.25-.13-.33s-.2-.12-.35-.12-.26.04-.35.12-.13.19-.13.33v.03c0,.13.04.24.13.32s.2.12.35.12ZM105.11,26.19c.13,0,.23-.04.3-.12s.12-.18.12-.32v-.03c0-.13-.04-.23-.12-.3s-.18-.11-.3-.11-.23.04-.3.11-.12.18-.12.3v.03c0,.13.04.23.12.31s.18.12.3.12ZM106.88,27.88l.74-1.46v.07c-.04.06-.09.11-.16.14s-.15.04-.24.04c-.21,0-.38-.08-.51-.24s-.19-.37-.19-.63h0c0-.29.07-.51.22-.67s.34-.24.61-.24.46.08.6.24.21.38.21.67h0c0,.12-.02.25-.05.39s-.09.28-.15.41l-.63,1.26h-.44ZM107.34,26.3c.13,0,.23-.04.3-.13s.11-.21.11-.37h0c0-.16-.04-.28-.11-.36s-.17-.13-.3-.13-.23.04-.3.13-.11.21-.11.36h0c0,.16.04.28.11.37s.17.13.3.13ZM82.92,1.87v2.94h-.41v-2.49l-.42.26v-.43l.42-.28h.41ZM83.89,4.81l.74-1.46v.07c-.04.06-.09.11-.16.14s-.15.04-.24.04c-.21,0-.38-.08-.51-.24s-.19-.37-.19-.63h0c0-.29.07-.51.22-.67s.34-.24.61-.24.46.08.6.24.21.38.21.67h0c0,.12-.02.25-.05.39s-.09.28-.15.41l-.63,1.26h-.44ZM84.35,3.23c.13,0,.23-.04.3-.13s.11-.21.11-.37h0c0-.16-.04-.28-.11-.36s-.17-.13-.3-.13-.23.04-.3.13-.11.21-.11.36h0c0,.16.04.28.11.37s.17.13.3.13ZM109.21.79v28.17h-28.17V.79h28.17M110,0h-29.75v29.75h29.75V0h0ZM14.3,9.1c.3-.74,1.53-3.76,1.84-4.11h-2.07c.29.5-.6,2.68-.82,3.24-.21.53-3.76,9.95-3.76,9.95h-.12s-3.25-8.56-3.51-9.2c-.25-.65-1.25-3.22-1.24-3.97H0c.57.78,1.33,2.65,1.77,3.84.1.26,6.29,16.11,6.29,16.11h.18s5.77-15.13,6.06-15.84M29.89,24.76l.2-3.71s-.03,0-.08-.02c-.18,1.22-1.24,2.37-3.08,2.48-.27.02-1.87.03-2.17.03-1.71-.02-1.87-.49-1.87-1.29,0-.63,0-17.27,0-17.27h-4.3c.33.46.44,1.14.44,2.21v17.57s10.87,0,10.87,0ZM48.97,10.9c-.94-3.48-3.82-6.16-8.54-6.16h-.03s-.08,0-.08,0h-.06s-.05,0-.05,0h-.03s-.03,0-.03,0h-.03s-.03,0-.03,0h-.02s-.02,0-.02,0h-.03s-.02,0-.02,0h-.02s-.03,0-.03,0h-.03c-5.77.25-8.63,4.69-8.63,10.13,0,2.87.8,5.45,2.4,7.3h0c1.48,1.71,3.63,2.78,6.48,2.84h.02s.02,0,.02,0h.02s.02,0,.02,0h.02s.02,0,.02,0h.02s.02,0,.02,0h.02s.02,0,.02,0h.02s.02,0,.02,0h.02s.02,0,.02,0h.02s.26,0,.26,0c4.57-.1,7.35-2.74,8.28-6.16h-4.04c-.69,3.01-2.28,4.75-4.24,4.94-.08.01-.17.02-.26.02-2.79,0-5.05-3.6-5.05-8.94,0-5.33,2.24-9.01,5.02-9.04h.03c2.08,0,3.77,1.88,4.5,5.05h4.04ZM70.69,10.89c-.93-3.48-3.82-6.16-8.54-6.16h-.03s-.08,0-.08,0h-.06s-.05,0-.05,0h-.03s-.03,0-.03,0h-.03s-.03,0-.03,0h-.02s-.02,0-.02,0h-.03s-.02,0-.02,0h-.02s-.02,0-.02,0h-.03c-5.77.25-8.63,4.69-8.63,10.13,0,2.87.8,5.45,2.4,7.3h0c1.48,1.71,3.63,2.78,6.48,2.84h.02s.02,0,.02,0h.02s.02,0,.02,0h.02s.02,0,.02,0h.02s.02,0,.02,0h.02s.02,0,.02,0h.01s.02,0,.02,0h.02s.02,0,.02,0h.02s.26,0,.26,0c4.57-.1,7.35-2.74,8.27-6.16h-4.04c-.69,3.03-2.27,4.85-4.23,5.04-.09.01-.17.02-.26.02-2.79,0-5.04-3.69-5.04-9.04s2.24-9.01,5.02-9.04h.03c2.08,0,3.77,1.88,4.5,5.05h4.04Z"/>
  </g>
</svg>